<svg width="62" height="47" viewBox="0 0 62 47" fill="none" xmlns="http://www.w3.org/2000/svg">
<path d="M21.6667 44L4.72044 37.0197C4.20375 36.8071 3.76913 36.4801 3.46527 36.0755C3.16141 35.6709 3.00031 35.2046 3 34.7289V7.14612C3.00028 6.7095 3.13601 6.28017 3.39431 5.89888C3.65262 5.5176 4.02492 5.197 4.47589 4.9675C4.92687 4.73801 5.44156 4.60723 5.97113 4.58759C6.5007 4.56794 7.02758 4.66008 7.50178 4.85525L21.6667 10.6875M21.6667 44V10.6875M21.6667 44L40.3333 36.3125M21.6667 10.6875L40.3333 3M40.3333 36.3125L54.4982 42.1447C54.9724 42.3399 55.4993 42.4321 56.0289 42.4124C56.5584 42.3928 57.0731 42.262 57.5241 42.0325C57.9751 41.803 58.3474 41.4824 58.6057 41.1011C58.864 40.7198 58.9997 40.2905 59 39.8539V12.2711C58.9997 11.7954 58.8386 11.3291 58.5347 10.9245C58.2309 10.5199 57.7963 10.1929 57.2796 9.98025L40.3333 3M40.3333 36.3125V3" stroke="black" stroke-width="5.5" stroke-linecap="round" stroke-linejoin="round"/>
<path fill-rule="evenodd" clip-rule="evenodd" d="M27.4646 17.6985C28.4022 16.611 29.674 16 31.0001 16C32.3261 16 33.5979 16.611 34.5355 17.6985C35.4732 18.786 36 20.261 36 21.799C36 23.337 35.4732 24.812 34.5355 25.8995L31.0001 30L27.4646 25.8995C27.0002 25.361 26.6319 24.7218 26.3806 24.0182C26.1293 23.3146 26 22.5605 26 21.799C26 21.0374 26.1293 20.2834 26.3806 19.5798C26.6319 18.8762 27.0002 18.237 27.4646 17.6985ZM31.0001 23.4558C31.3789 23.4558 31.7423 23.2812 32.0101 22.9705C32.278 22.6598 32.4285 22.2384 32.4285 21.799C32.4285 21.3596 32.278 20.9382 32.0101 20.6275C31.7423 20.3168 31.3789 20.1422 31.0001 20.1422C30.6212 20.1422 30.2579 20.3168 29.99 20.6275C29.7221 20.9382 29.5716 21.3596 29.5716 21.799C29.5716 22.2384 29.7221 22.6598 29.99 22.9705C30.2579 23.2812 30.6212 23.4558 31.0001 23.4558Z" fill="black"/>
</svg>
